<?xml version="1.0" encoding="utf-8"?>
<!-- Generator: Adobe Illustrator 19.0.0, SVG Export Plug-In . SVG Version: 6.00 Build 0)  -->
<svg version="1.1" id="Layer_1" xmlns="http://www.w3.org/2000/svg" xmlns:xlink="http://www.w3.org/1999/xlink" x="0px" y="0px"
	 viewBox="8 79.7 551 556" style="enable-background:new 8 79.7 551 556;" xml:space="preserve">
<style type="text/css">
	.st0{opacity:0.32;fill:none;stroke:#CECACA;stroke-width:0.75;stroke-miterlimit:10;enable-background:new    ;}
	.st1{opacity:0.29;fill:none;stroke:#CECACA;stroke-width:0.75;stroke-miterlimit:10;enable-background:new    ;}
	.st2{opacity:0.24;fill:none;stroke:#CECACA;stroke-width:0.75;stroke-miterlimit:10;enable-background:new    ;}

	.circle-animation {
	animation: zig 3s infinite linear;
	transform-origin: center;

}

@keyframes zig {
	0%{
		-moz-transform: rotate(0deg);
		-webkit-transform: rotate(0deg);
		-o-transform: rotate(0deg);
		-ms-transform: rotate(0deg);
		transform: rotate(0deg);
		
	}
	100%{
		-moz-transform: rotate(360deg);
		-webkit-transform: rotate(360deg);
		-o-transform: rotate(360deg);
		-ms-transform: rotate(360deg);
		transform-origin: center;
	}
}
.dash-array {
	
}
.dash-array--7 {
	stroke-dasharray: 7;
	animation-duration: 7s;
}
.dash-array--2 {
	stroke-dasharray: 2;
	animation-duration: 4s;
}
</style>
<g id="XMLID_1206_">
	<path data-ignore="true" id="XMLID_182_" class="st0" d="M424.1,149c0,0-68.3-45.7-79.2-48.4"/>
	<path data-ignore="true" id="XMLID_181_" class="st0" d="M321.7,95.3l9.8-14.5c0.7-1.1,2.2-1.5,3.4-0.8l13,7.2c1.3,0.7,1.7,2.3,1,3.6l-5.5,9.3"/>
	<polyline  id="XMLID_180_" class="st0" points="308.6,105.5 426.9,156.9 420.3,168 298.4,113.7 	"/>
	<path data-ignore="true" id="XMLID_179_" class="st0" d="M420.3,168l-2.2,2.6v2.9v2.1l-5.7,10.4l-0.7,0.2c-4,1.2-7,4.5-7.9,8.6l-1.6,7l-4.1-4.4l0,0
		c-6.6,1.6-12.2,5.7-15.8,11.4l-1,1.6c0,0,16.4,9.2,12.9,37.6c-0.2,2-0.7,4-1.4,5.9l-36.9,104.2c-1.7,4.9-4.2,9.5-7.3,13.6
		c-9.9,13.1-34.2,37.5-76.8,35.3l-247-14.4"/>
	<path data-ignore="true" id="XMLID_178_" class="st0" d="M418.1,171.6c-0.8,0-95.5-39.2-95.5-39.2"/>
	<circle data-ignore="true" id="XMLID_177_" class="st0" cx="316" cy="133.3" r="6.7"/>
	<line data-ignore="true" id="XMLID_176_" class="st0" x1="322.4" y1="135" x2="395.2" y2="167"/>
	<path data-ignore="true" id="XMLID_175_" class="st0" d="M402.2,201.7c0,0,23.8,23.8,7.5,69.3c-14.1,39.5-32.2,89.7-36.8,102.3c-0.9,2.5-2,5-3.3,7.3
		c-7.6,13.4-34.6,53.5-86.4,53.7L8,413.3"/>
	<path data-ignore="true" id="XMLID_174_" class="st0" d="M51.1,389.3c0,0-17.1,2.5-13.3,15.2c3.9,12.7-17.7,20.7-17.7,20.7"/>
	<path data-ignore="true" id="XMLID_173_" class="st0" d="M386.9,203.2c0,0,18.1,14.3,10.9,50.5c-6.6,33.3-38.7,108.9-43.8,120.8
		c-0.6,1.4-1.3,2.7-2.1,4c-5.7,8.9-29.6,40-85.1,35.5L37.4,399"/>
	<path data-ignore="true" id="XMLID_172_" class="st0" d="M392.7,199.2c0,0,23.5,24.1,15.4,54c-8.1,29.8-43.8,120.5-43.8,120.5s-18.2,51.6-75.9,51.6
		c-56,0-250.1-18-250.1-18"/>
	<ellipse data-ignore="true" id="XMLID_1094_" class="st0" cx="108.1" cy="154.7" rx="25.2" ry="39.2"/>
	<ellipse data-ignore="true" id="XMLID_1096_" class="st0" cx="104.2" cy="154.7" rx="25.2" ry="39.2"/>
	<path data-ignore="true" id="XMLID_1097_" class="st0" d="M104.2,115.4l50.8-1.3c0,0,30.4,12.2,25,49.2c-0.3,1.8-0.6,3.5-1.1,5.2
		c-1.5,6.2-4.4,22.1-19.5,30.6l-55.2-5.4"/>
	<path data-ignore="true" id="XMLID_1095_" class="st0" d="M154.4,114.1l9.9-0.2c3.2-0.1,6.2,1.4,8.2,3.8c0.1,0.1,0.2,0.2,0.3,0.4
		c18.8,23.7,16.5,57.8-5,79.1l-0.1,0.1c-1.2,1.2-2.9,1.9-4.6,1.9h-3.6"/>
	<path data-ignore="true" id="XMLID_171_" class="st0" d="M182.2,135h14.2c2.3,0,4.5,1.2,5.8,3.1c3.4,5.2,8.4,16.8,1.7,34.5c-1,2.7-3.6,4.4-6.5,4.4h-16
		"/>
	<line data-ignore="true" id="XMLID_1100_" class="st0" x1="119.5" y1="119.7" x2="174" y2="119.7"/>
	<line data-ignore="true" id="XMLID_1101_" class="st0" x1="123.2" y1="123.5" x2="176.6" y2="123.5"/>
	<line data-ignore="true" id="XMLID_1102_" class="st0" x1="126.9" y1="128.6" x2="179.5" y2="128.6"/>
	<line data-ignore="true" id="XMLID_1103_" class="st0" x1="129.5" y1="133.3" x2="182" y2="133.3"/>
	<line data-ignore="true" id="XMLID_1104_" class="st0" x1="131.3" y1="140" x2="183.8" y2="140"/>
	<line data-ignore="true" id="XMLID_1105_" class="st0" x1="132.4" y1="145.6" x2="184.9" y2="145.6"/>
	<line data-ignore="true" id="XMLID_1106_" class="st0" x1="133.3" y1="152" x2="185.8" y2="152"/>
	<line data-ignore="true" id="XMLID_1107_" class="st0" x1="133.3" y1="157.7" x2="185.8" y2="157.7"/>
	<line data-ignore="true" id="XMLID_1108_" class="st0" x1="132.7" y1="162.4" x2="185.3" y2="162.4"/>
	<line data-ignore="true" id="XMLID_1109_" class="st0" x1="131.6" y1="168.2" x2="184.1" y2="168.2"/>
	<line data-ignore="true" id="XMLID_1110_" class="st0" x1="130.1" y1="174" x2="182.7" y2="174"/>
	<line data-ignore="true" id="XMLID_1111_" class="st0" x1="127.5" y1="179.6" x2="180" y2="179.6"/>
	<line data-ignore="true" id="XMLID_1112_" class="st0" x1="124.6" y1="184.4" x2="177.8" y2="184.4"/>
	<line data-ignore="true" id="XMLID_1113_" class="st0" x1="120.4" y1="189.1" x2="174.7" y2="189.1"/>
	<line data-ignore="true" id="XMLID_1114_" class="st0" x1="115.2" y1="192.3" x2="170.8" y2="194.1"/>
	<path data-ignore="true" id="XMLID_170_" class="st0" d="M195.6,135c0,0,1.7-9.1,9.2-8c7.6,1.1,21.9,34.9,0.8,57c-2.9,2.9-8.6-6.9-8.6-6.9"/>
	<path data-ignore="true" id="XMLID_169_" class="st0" d="M203.7,126.9h8c0,0,10.8,7.2,9.9,35.4c0.1,1.9-2.3,18-11.7,25.1l-5.4-2.9"/>
	<path data-ignore="true" id="XMLID_709_" class="st0" d="M209.6,126.7v-5.1h-6.8v-10.4h4.3l11.3-12.8h43l7.5,6.5v6.8h3.3v6.8h-2.5v7.4h3.7v6.5h2.8v2.7
		l9.2-0.3V125l6.3-2.9l7.2-9l5.9-7.6h3.9l4.2-5.3l5.3-5.3c0,0,63.2,8.1,103.9,45.1l2,9l2.8,3.9v4.1c0,0-83.7-49.2-114.8-55.7"/>
	<line data-ignore="true" id="XMLID_168_" class="st0" x1="212.5" y1="105.4" x2="268.9" y2="104.9"/>
	<line data-ignore="true" id="XMLID_167_" class="st0" x1="219.9" y1="98.4" x2="219.9" y2="105.5"/>
	<line data-ignore="true" id="XMLID_166_" class="st0" x1="221.6" y1="98.4" x2="221.6" y2="105.5"/>
	<line data-ignore="true" id="XMLID_165_" class="st0" x1="225.4" y1="98.4" x2="225.4" y2="105.5"/>
	<line data-ignore="true" id="XMLID_164_" class="st0" x1="228.2" y1="98.4" x2="228.2" y2="105.5"/>
	<line data-ignore="true" id="XMLID_163_" class="st0" x1="243.9" y1="98.4" x2="243.9" y2="105.5"/>
	<line data-ignore="true" id="XMLID_162_" class="st0" x1="253.4" y1="98.4" x2="253.4" y2="105.5"/>
	<polyline  id="XMLID_161_" class="st0" points="212.5,117.2 265,117.2 265,112.1 	"/>
	<line data-ignore="true" id="XMLID_160_" class="st0" x1="231.6" y1="105.5" x2="231.6" y2="117.5"/>
	<polyline  id="XMLID_159_" class="st0" points="234.8,117.2 234.8,135 238.2,135 	"/>
	<path data-ignore="true" id="XMLID_158_" class="st0" d="M243.3,132.4c-1.4-0.1-5.1,0-5.1,0v30.9"/>
	<path data-ignore="true" id="XMLID_157_" class="st0" d="M213.4,128.6h5.1c0,0,5,2,6.9,9.2"/>
	<path data-ignore="true" id="XMLID_156_" class="st0" d="M222.6,131.4h5.6l2.2,2.8c0.3,0.4,0.5,0.8,0.5,1.3l0,0c0,1.1-0.9,2-2,2h-2.1"/>
	<path data-ignore="true" id="XMLID_155_" class="st0" d="M209.8,187.8v5.4h7.1v4.2h8.9v3.1h25.3v-4.8h10.7V190h-2.6v-8.4h2.6h2.3v-6.5h9.8v3.1h4.8v2
		h-3.9v4.1h3.9v2.1h-4.1v2.6h4.1v3.2h-3.8v4.1h3.8v4.1h-3.6v3.2h4.1v4.4h-3.9v3.2h3.9v3.5h-4v3.2h3.5v4.3h-4v4.1h4v4.4h-4v2.9
		c0,4.5-2,8.8-5.5,11.7c-11.5,9.5-38.6,29.8-57.4,29.4"/>
	<path data-ignore="true" id="XMLID_154_" class="st0" d="M212.1,274.9c0,0-6.9,0.5-9.9-8.8c-2.9-9.3-6.4-14.5-11.8-16.5v-7.8h-21.5v-3.9h-21v-4.1H126
		v5.9c0,0-40.9,32.9-50.9,57.2c-0.8,1.9-2.6,3.1-4.6,3.1h-5.3c-1.8,0-3.5,1-4.4,2.5l0,0c-2.3,3.9-6.4,6.3-10.9,6.3h-3.6
		c-2.4,0-4.3,1.9-4.3,4.3v32.7c0,2.6,2.1,4.7,4.7,4.7h44.6"/>
	<path data-ignore="true" id="XMLID_153_" class="st0" d="M74,351.9c0,0,10.7,19.5,34.1,26.2v19.4"/>
	<circle data-ignore="true" id="XMLID_152_" class="st0" cx="127.5" cy="333.5" r="8.1"/>
	<circle data-ignore="true" id="XMLID_151_" class="st0" cx="127.5" cy="333.5" r="10.9"/>
	<polygon data-ignore="true" id="XMLID_150_" class="st0" points="113.4,324.5 113.4,340.7 127.5,351 142.2,341.7 142.2,325.9 128.4,316 	"/>
	<path data-ignore="true" id="XMLID_149_" class="st0" d="M120,308.8h13.4l19.4,16.6v9.8c0,0-18,23.9-18.4,23.9c-0.4,0-12.3,0-12.3,0l-18.8-16.2
		l-0.8-11.6L120,308.8z"/>
	<path data-ignore="true" id="XMLID_148_" class="st0" d="M264.4,277.2c-1.7-2.1-4.5-3-7.1-2.1c-16.5,5.5-71,24.9-55.9,33.7
		c17.7,10.4,50.6,37.2,53.3,53.5c2.7,16.3,27.4,9.9,43.7,1.7c16.3-8.3,41.7-46.1,35.9-65.2c-3.6-3.6-43.1-28.7-51.1-25.1
		C275.9,276.8,272.2,286.9,264.4,277.2z"/>
	<circle data-ignore="true" id="XMLID_147_" class="st0 circle-animation dash-array dash-array--7" cx="282" cy="322.8" r="27.3"/>
	<circle data-ignore="true" id="XMLID_146_" class="st0" cx="325.7" cy="305.9" r="3.9"/>
	<circle data-ignore="true" id="XMLID_145_" class="st0" cx="282" cy="284.8" r="3.9"/>
	<circle data-ignore="true" id="XMLID_144_" class="st0" cx="282" cy="284.8" r="1.8"/>
	<circle data-ignore="true" id="XMLID_143_" class="st0" cx="253.4" cy="284.8" r="1.8"/>
	<circle data-ignore="true" id="XMLID_142_" class="st0" cx="222.6" cy="278" r="1.8"/>
	<circle data-ignore="true" id="XMLID_141_" class="st0" cx="236.9" cy="272.7" r="1.8"/>
	<circle data-ignore="true" id="XMLID_140_" class="st0" cx="306.3" cy="348.7" r="1.8"/>
	<circle data-ignore="true" id="XMLID_139_" class="st0" cx="325.7" cy="305.9" r="1.8"/>
	<circle data-ignore="true" id="XMLID_138_" class="st0" cx="270.8" cy="360.9" r="3.9"/>
	<circle data-ignore="true" id="XMLID_137_" class="st0" cx="270.8" cy="360.9" r="1.8"/>
	<circle data-ignore="true" id="XMLID_136_" class="st0" cx="211.7" cy="304.1" r="3.9"/>
	<circle data-ignore="true" id="XMLID_135_" class="st0" cx="211.7" cy="304.1" r="1.8"/>
	<path data-ignore="true" id="XMLID_134_" class="st0" d="M202.3,266.1c0,0-3.1,6.8,1.4,14.9c4.6,8.1,6.2,13.7,6.2,13.7"/>
	<line data-ignore="true" id="XMLID_133_" class="st0" x1="251.1" y1="258.9" x2="257.3" y2="275.1"/>
	<circle data-ignore="true" id="XMLID_132_" class="st0 circle-animation dash-array dash-array--2" cx="270.8" cy="272.1" r="3.6"/>
	<circle data-ignore="true" id="XMLID_131_" class="st0 circle-animation dash-array dash-array--2" cx="270.8" cy="272.1" r="7.1"/>
	<path data-ignore="true" id="XMLID_130_" class="st0" d="M216.9,193.2v-9.4h6.2h1.9v-16.1h7l1.4-5.3c1.4-18-4.1-22.3-4.1-22.3"/>
	<line data-ignore="true" id="XMLID_129_" class="st0" x1="225.3" y1="176.6" x2="263.6" y2="176.6"/>
	<line data-ignore="true" id="XMLID_128_" class="st0" x1="225.3" y1="180" x2="263.6" y2="180"/>
	<polyline  id="XMLID_127_" class="st0" points="238.8,180 238.8,196.7 228.9,196.7 228.9,187.1 231.6,187.1 231.6,180 	"/>
	<polyline  id="XMLID_126_" class="st0" points="252.1,180.4 252.1,191.7 245.6,191.7 245.6,196.7 238.8,196.7 	"/>
	<polyline  id="XMLID_125_" class="st0" points="238.2,151 243.9,151 243.9,170.2 	"/>
	<path data-ignore="true" id="XMLID_124_" class="st0" d="M255,143.2"/>
	<polyline  id="XMLID_123_" class="st0" points="273.2,175.1 280.1,168.2 282.6,170.2 284.5,168.2 291.4,173.4 307.6,151 
		290.4,141.5 284.6,141.5 282.7,140 282.7,135 	"/>
	<polyline  id="XMLID_122_" class="st0" points="303.1,115.8 299.4,122.8 305.4,125.8 300,134.4 300.4,139.3 311.6,147.8 
		311.6,152.7 292.2,179.6 284.1,174 280.2,177.1 	"/>
	<polyline  id="XMLID_121_" class="st0" points="313,120.2 304.7,135 305.8,139.3 316,147 316,152 334.2,160.6 	"/>
	<polyline  id="XMLID_120_" class="st0" points="373.5,175.1 332.2,274.9 295.9,258.9 339.9,157.7 	"/>
	<polyline  id="XMLID_119_" class="st0" points="316,147 344.9,160.6 370.4,170.2 370.4,174 329.5,270.1 300.9,257.4 342.2,160.6 	
		"/>
	<line data-ignore="true" id="XMLID_118_" class="st0" x1="406.9" y1="189.1" x2="370.4" y2="174"/>
	<line data-ignore="true" id="XMLID_117_" class="st0" x1="404.2" y1="193.2" x2="373.5" y2="180.4"/>
	<line data-ignore="true" id="XMLID_116_" class="st0" x1="330.9" y1="165.3" x2="311.6" y2="156"/>
	<line data-ignore="true" id="XMLID_115_" class="st0" x1="328.6" y1="170" x2="309.3" y2="160.7"/>
	<line data-ignore="true" id="XMLID_114_" class="st0" x1="389.7" y1="200.7" x2="368.6" y2="191.5"/>
	<line data-ignore="true" id="XMLID_113_" class="st0" x1="383.8" y1="205" x2="366" y2="197.6"/>
	<line data-ignore="true" id="XMLID_112_" class="st0" x1="325.6" y1="174.7" x2="306.3" y2="165.3"/>
	<line data-ignore="true" id="XMLID_111_" class="st0" x1="323.6" y1="181.5" x2="300.9" y2="170.4"/>
	<line data-ignore="true" id="XMLID_110_" class="st0" x1="319.4" y1="187.6" x2="296.9" y2="176.2"/>
	<line data-ignore="true" id="XMLID_109_" class="st0" x1="315.7" y1="194.6" x2="284.1" y2="178.9"/>
	<line data-ignore="true" id="XMLID_108_" class="st0" x1="312.2" y1="201.1" x2="280.7" y2="185.3"/>
	<line data-ignore="true" id="XMLID_107_" class="st0" x1="311.7" y1="207.1" x2="280.1" y2="191.4"/>
	<line data-ignore="true" id="XMLID_106_" class="st0" x1="310.7" y1="212.9" x2="279.1" y2="197.1"/>
	<line data-ignore="true" id="XMLID_105_" class="st0" x1="307.6" y1="217.2" x2="280.1" y2="203.5"/>
	<line data-ignore="true" id="XMLID_104_" class="st0" x1="306.6" y1="223.1" x2="279.1" y2="209.4"/>
	<line data-ignore="true" id="XMLID_103_" class="st0" x1="302.4" y1="228.8" x2="278.9" y2="217"/>
	<line data-ignore="true" id="XMLID_102_" class="st0" x1="301.4" y1="235.6" x2="277.9" y2="223.8"/>
	<line data-ignore="true" id="XMLID_101_" class="st0" x1="298.8" y1="239.8" x2="278.6" y2="229.7"/>
	<line data-ignore="true" id="XMLID_100_" class="st0" x1="349.3" y1="252.9" x2="343.6" y2="250.1"/>
	<line data-ignore="true" id="XMLID_99_" class="st0" x1="381" y1="211.1" x2="364" y2="203.5"/>
	<line data-ignore="true" id="XMLID_98_" class="st0" x1="383.8" y1="218.8" x2="361.2" y2="208.6"/>
	<line data-ignore="true" id="XMLID_97_" class="st0" x1="381.7" y1="223.8" x2="359" y2="213.7"/>
	<line data-ignore="true" id="XMLID_96_" class="st0" x1="375.2" y1="227" x2="356.8" y2="218.8"/>
	<line data-ignore="true" id="XMLID_95_" class="st0" x1="373.2" y1="232.1" x2="354.8" y2="223.8"/>
	<line data-ignore="true" id="XMLID_94_" class="st0" x1="368.6" y1="235.6" x2="353" y2="228"/>
	<line data-ignore="true" id="XMLID_93_" class="st0" x1="364" y1="238.6" x2="351.3" y2="232.5"/>
	<line data-ignore="true" id="XMLID_92_" class="st0" x1="362.6" y1="242.6" x2="349.9" y2="236.4"/>
	<line data-ignore="true" id="XMLID_91_" class="st0" x1="357.7" y1="245.4" x2="348.1" y2="240.6"/>
	<line data-ignore="true" id="XMLID_90_" class="st0" x1="354.3" y1="249.1" x2="345.5" y2="244.8"/>
	<line data-ignore="true" id="XMLID_89_" class="st0" x1="401.7" y1="198.5" x2="370.9" y2="185.8"/>
	<path data-ignore="true" id="XMLID_88_" class="st0" d="M387,216.3l-7.8,13.1l-3.6-2.3l-2.1,2.2l2.1,1l-2.1,2.9l-3.1-1.6l-1.8,2.4l2.3,1l-1.8,2.9
		l-3.1-0.5l-1.5,5.2H360l-1.6,4.9l-2.9-0.6l-1.7,4.1l-3-0.4l-1.3,5.1l-3.2-0.4l-6.8,15.7c0,0,3.4,10.9-5.2,17.6l-12.4-5.7l3-8
		l-22.4-9L296,273l-10-4.7l4.5-9.7l47.4-102.2"/>
	<polygon data-ignore="true" id="XMLID_87_" class="st0" points="303.2,275.5 301.9,273.2 303.2,270.9 305.8,270.9 307.1,273.2 305.8,275.5 	"/>
	<polygon data-ignore="true" id="XMLID_86_" class="st0" points="314.4,280.2 313.1,278 314.4,275.7 317,275.7 318.3,278 317,280.2 	"/>
	<polyline data-ignore="true" id="XMLID_85_" class="st0" points="269.6,245.4 285.9,253.9 280.7,265 286.4,267.4 	"/>
	<path data-ignore="true" id="XMLID_84_" class="st0" d="M336.4,286.6h20.3v17.5h-20.3v19.4h2.1V357c0,0-17.9,23.9-14.8,37.3"/>
	<polyline data-ignore="true" id="XMLID_83_" class="st0" points="330.4,370 285.9,370 285.9,407.1 	"/>
	<polyline data-ignore="true" id="XMLID_82_" class="st0" points="296.7,370 296.7,367.3 325.7,367.3 325.7,370 	"/>
	<path data-ignore="true" id="XMLID_81_" class="st0" d="M325.7,367.3c-0.1-1,0-4.1,0-4.1H303v4.1"/>
	<polyline data-ignore="true" id="XMLID_80_" class="st0" points="310.1,363.2 310.1,358.5 317.5,358.5 317.5,350 321.8,350 321.8,358.2 323.4,358.2 
		323.4,360.9 324.8,360.9 324.8,358.1 329.5,358.1 329.5,370.5 	"/>
	<path data-ignore="true" id="XMLID_79_" class="st0" d="M207.8,312.8c0,0,6.7,29.5,3.9,38.2c-2.8,8.7,27.7-0.7,43.7,13.7"/>
	<line data-ignore="true" id="XMLID_78_" class="st0" x1="205.6" y1="284.4" x2="221.1" y2="278.8"/>
	<line data-ignore="true" id="XMLID_77_" class="st0" x1="238.7" y1="272.1" x2="254.2" y2="266.5"/>
	<line data-ignore="true" id="XMLID_76_" class="st0" x1="231.6" y1="356.1" x2="231.6" y2="404.6"/>
	<line data-ignore="true" id="XMLID_75_" class="st0" x1="216.6" y1="356.1" x2="216.6" y2="404.6"/>
	<circle data-ignore="true" id="XMLID_74_" class="st0" cx="127.5" cy="333.5" r="32.1"/>
	<circle data-ignore="true" id="XMLID_73_" class="st0" cx="127.5" cy="333.5" r="36.2"/>
	<circle data-ignore="true" id="XMLID_72_" class="st0" cx="127.5" cy="333.5" r="40.1"/>
	<polyline data-ignore="true" id="XMLID_71_" class="st0" points="255,150.4 255,171.6 267.4,171.6 	"/>
	<ellipse data-ignore="true" id="XMLID_70_" class="st0" cx="274.8" cy="153.5" rx="7.4" ry="11.8"/>
	<ellipse data-ignore="true" id="XMLID_69_" class="st0" cx="274.8" cy="153.5" rx="2.9" ry="4.6"/>
	<polyline data-ignore="true" id="XMLID_68_" class="st0" points="249.2,118.7 249.2,143.2 256.8,143.2 256.8,137.8 263.6,144.3 276.2,135 	"/>
	<path data-ignore="true" id="XMLID_67_" class="st0" d="M287.9,145.8c0,0,3.1,14.1-3.4,22.5"/>
	<polyline data-ignore="true" id="XMLID_66_" class="st0" points="212.5,356.1 197,356.1 203.7,369.7 188.1,394.3 	"/>
	<rect data-ignore="true" id="XMLID_65_" x="149.9" y="385.4" class="st0" width="38.2" height="8.9"/>
	<polyline data-ignore="true" id="XMLID_64_" class="st0" points="188.1,394.3 202.9,394.3 202.9,403 	"/>
	<circle data-ignore="true" id="XMLID_63_" class="st0" cx="167.6" cy="373.6" r="2.4"/>
	<circle data-ignore="true" id="XMLID_62_" class="st0" cx="167.6" cy="373.6" r="6.2"/>
	<circle data-ignore="true" id="XMLID_61_" class="st0" cx="129.5" cy="391.7" r="2.4"/>
	<circle data-ignore="true" id="XMLID_60_" class="st0" cx="129.5" cy="391.7" r="6.2"/>
	<circle data-ignore="true" id="XMLID_59_" class="st0" cx="116.6" cy="382.2" r="2.4"/>
	<circle data-ignore="true" id="XMLID_58_" class="st0" cx="116.6" cy="382.2" r="6.2"/>
	<circle data-ignore="true" id="XMLID_57_" class="st0" cx="183.8" cy="312.8" r="2.4"/>
	<circle data-ignore="true" id="XMLID_56_" class="st0" cx="183.8" cy="312.8" r="6.2"/>
	<circle data-ignore="true" id="XMLID_55_" class="st0" cx="130.1" cy="265" r="7.7"/>
	<circle data-ignore="true" id="XMLID_54_" class="st0" cx="130.1" cy="265" r="10.3"/>
	<circle data-ignore="true" id="XMLID_53_" class="st0" cx="167.6" cy="267" r="22.9"/>
	<polyline data-ignore="true" id="XMLID_52_" class="st0" points="211.7,334.9 194.3,334.9 194.3,350 211.7,350 	"/>
	<polyline data-ignore="true" id="XMLID_51_" class="st0" points="117.5,246.9 109.4,261.1 113.4,267.4 109.4,269.3 111.3,273.2 105.8,274.5 
		105.8,279.2 97.8,286.6 101.1,292.1 97.8,294.6 102.5,301.4 	"/>
	<path data-ignore="true" id="XMLID_50_" class="st0" d="M117.5,278c0.5-3,0-23.2,0-23.2l5.7-5.7h12.4l6.6,3.9v25l-4.5,5.1h-15.2L117.5,278z"/>
	<circle data-ignore="true" id="XMLID_49_" class="st0" cx="70.1" cy="325.4" r="12.6"/>
	<line data-ignore="true" id="XMLID_48_" class="st0" x1="43.3" y1="325.4" x2="54.1" y2="325.4"/>
	<line data-ignore="true" id="XMLID_47_" class="st0" x1="82.8" y1="325.4" x2="85.6" y2="325.4"/>
	<line data-ignore="true" id="XMLID_46_" class="st0" x1="140.3" y1="295.5" x2="207.8" y2="295.5"/>
	<line data-ignore="true" id="XMLID_45_" class="st0" x1="147.5" y1="298.4" x2="204.5" y2="298.4"/>
	<path data-ignore="true" id="XMLID_44_" class="st0" d="M177.6,246.9v6l-6-1.4l-4.1,8.3l7.1,2.8v12.5l-13.3-4.2c0,0-3.5,7.6-3.5,8.3
		c0,0.7,3.5,3.8,3.5,3.8l-1.1,5.7"/>
	<path data-ignore="true" id="XMLID_43_" class="st0" d="M166.7,341.6l15.2,6.3c1.1,0.4,1.7,1.6,1.4,2.8l0,0c-0.3,1.3-1.7,2-3,1.6l-15.2-5"/>
	<path data-ignore="true" id="XMLID_42_" class="st0" d="M159.8,309.7l12.9-8.3c1-0.7,2.4-0.4,3,0.7l0,0c0.7,1.1,0.3,2.5-0.8,3.1l-2.3,1.2
		c-1.4,0.7-2.1,2.4-1.6,4l0,0c0.5,1.5,2,2.3,3.5,2.1l1.6-0.2c0,0-2.8,5.4,5.4,9.1l-1,4.1l-12.7,6.6"/>
	<polyline data-ignore="true" id="XMLID_41_" class="st0" points="134.8,388.4 144.6,380.4 147.5,382.2 135.7,391.7 	"/>
	<rect data-ignore="true" id="XMLID_40_" x="190.5" y="284.4" class="st0" width="9.8" height="4.3"/>
	<line data-ignore="true" id="XMLID_39_" class="st0" x1="193.2" y1="288.8" x2="193.2" y2="295.3"/>
	<line data-ignore="true" id="XMLID_38_" class="st0" x1="197.6" y1="288.8" x2="197.6" y2="295.3"/>
	<line data-ignore="true" id="XMLID_37_" class="st0" x1="127.5" y1="374.7" x2="127.5" y2="386"/>
	<line data-ignore="true" id="XMLID_36_" class="st0" x1="117.7" y1="388.4" x2="117.7" y2="398"/>
	<line data-ignore="true" id="XMLID_35_" class="st0" x1="114.5" y1="388.4" x2="114.5" y2="397.9"/>
	<path data-ignore="true" id="XMLID_34_" class="st0" d="M160.8,355.8c0.4,1.6,4.7,11.9,4.7,11.9"/>
	<path data-ignore="true" id="XMLID_33_" class="st0" d="M158.4,359c0.4,1.6,4.7,10.7,4.7,10.7"/>
</g>

<g id='linedraw'>
	<line id="XMLID_32_" class="st1 " x1="428.2" y1="156.9" x2="552" y2="156.9" />
	<line id="XMLID_31_" class="st1" x1="420.3" y1="171.6" x2="544.1" y2="171.6"/>
	<line id="XMLID_30_" class="st1" x1="357.5" y1="286.1" x2="514.2" y2="286.1"/>
	<line id="XMLID_29_" class="st1" x1="357.7" y1="304.1" x2="501.5" y2="304.1"/>
	<line id="XMLID_28_" class="st1" x1="402.6" y1="203.2" x2="526.4" y2="203.2"/>
	<line id="XMLID_27_" class="st2" x1="151.6" y1="201.7" x2="275.3" y2="201.7"/>
	<line id="XMLID_26_" class="st1" x1="286.2" y1="434.3" x2="514.2" y2="434.3"/>
	<path id="XMLID_25_" class="st1" d="M514.2,160.2"/>
	<line id="XMLID_24_" class="st1" x1="488.4" y1="287.2" x2="488.4" y2="304.1"/>
	<line id="XMLID_23_" class="st2" x1="211.7" y1="204.9" x2="211.7" y2="270.1"/>
	<line id="XMLID_22_" class="st1" x1="456.4" y1="207.3" x2="456.4" y2="431.7"/>
	<polyline id="XMLID_21_" class="st1" points="462.1,425.2 456.4,431.7 450.3,425.2 "/>
	<polyline id="XMLID_20_" class="st1" points="450.5,213.4 456.4,207.1 462.3,213.7 "/>
	<line id="XMLID_19_" class="st1" x1="407.9" y1="478.7" x2="201.2" y2="477.3"/>
	<polyline id="XMLID_18_" class="st1" points="207.2,483.1 201.2,477.3 207.2,471.3 "/>
	<polyline id="XMLID_17_" class="st1" points="402.3,472.8 408.2,478.7 402,484.6 "/>
	<polyline id="XMLID_16_" class="st2" points="205.8,210.4 211.6,204 217.6,210.6 "/>
	<polyline id="XMLID_15_" class="st2" points="217.6,264.1 211.7,270.4 205.8,263.8 "/>
	<line id="XMLID_14_" class="st1" x1="409.8" y1="441.4" x2="409.8" y2="631.1"/>
	<line id="XMLID_1_" class="st1" x1="200.3" y1="440.9" x2="200.3" y2="630.7"/>
</g>
</svg>
